<svg xmlns="http://www.w3.org/2000/svg" version="1.1" xmlns:xlink="http://www.w3.org/1999/xlink" width="35" height="34"><svg width="35" height="34" viewBox="0 0 35 34" fill="none" xmlns="http://www.w3.org/2000/svg">
<path d="M7.20261 30.4218C10.0395 32.5881 13.6004 33.8896 17.4637 33.8896C21.6915 33.8896 25.5457 32.3413 28.4872 29.7996C28.5228 29.7685 28.5053 29.748 28.4701 29.7685C27.1502 30.6381 23.3881 32.5364 17.4639 32.5364C12.3154 32.5364 9.06181 31.4032 7.22442 30.3915C7.18927 30.3744 7.17625 30.4004 7.20261 30.4218ZM18.5996 31.2652C22.7174 31.2652 27.2424 30.1579 29.9487 27.966C30.6893 27.3688 31.3947 26.5739 32.0265 25.5057C32.3902 24.8911 32.7459 24.1608 33.0356 23.443C33.0485 23.408 33.0266 23.391 32.9999 23.4303C30.4832 27.0838 23.1954 29.3625 15.6704 29.3625C10.3515 29.3625 4.62839 27.6847 2.38775 24.4809C2.3657 24.4513 2.34364 24.464 2.35707 24.498C4.44438 28.8744 10.7768 31.2652 18.5996 31.2652ZM14.1005 24.0049C5.53621 24.0049 1.49799 20.0702 0.765463 17.385C0.75643 17.3462 0.730469 17.3547 0.730469 17.3896C0.730469 18.2936 0.822187 19.4601 0.979989 20.2344C1.05527 20.6114 1.36623 21.2029 1.82214 21.6744C3.89594 23.8067 9.0662 26.7946 18.0203 26.7946C30.2198 26.7946 33.0092 22.7858 33.5788 21.4676C33.9862 20.5247 34.1972 18.8209 34.1972 17.3897C34.1972 17.0434 34.1884 16.7667 34.1751 16.4951C34.1751 16.451 34.1493 16.4474 34.1403 16.4904C33.5307 19.7161 23.1075 24.0049 14.1005 24.0049ZM2.34364 10.3111C1.8529 11.2718 1.30894 12.8926 1.14723 13.7315C1.07635 14.0909 1.10654 14.2635 1.23431 14.5317C2.26079 16.6801 7.45295 20.1175 19.5642 20.1175C26.953 20.1175 32.6927 18.3269 33.6226 15.0592C33.7939 14.4577 33.803 13.8226 33.5831 12.9668C33.3373 12.0105 32.877 10.8953 32.4874 10.1122C32.4746 10.0867 32.4518 10.0905 32.4565 10.1207C32.6012 14.4065 20.4851 17.1688 14.3719 17.1688C7.75016 17.1688 2.2258 14.5662 2.2258 11.28C2.2258 10.9643 2.29205 10.6484 2.37473 10.3198C2.38303 10.2897 2.35699 10.2848 2.34364 10.3111ZM28.5143 5.04892C28.5846 5.15762 28.6197 5.27362 28.6197 5.42977C28.6197 7.26306 22.9317 10.5062 13.8773 10.5062C7.22442 10.5062 5.97886 8.07165 5.97886 6.52336C5.97886 5.9699 6.19403 5.4036 6.66793 4.82847C6.69381 4.79427 6.67183 4.7811 6.64197 4.80655C5.77768 5.52908 4.98354 6.34208 4.28691 7.21971C3.95405 7.63476 3.74742 8.00245 3.74742 8.22274C3.74742 11.4313 11.9033 13.7577 19.5293 13.7577C27.6549 13.7577 31.2813 11.141 31.2813 8.84147C31.2813 8.01963 30.957 7.53987 30.1274 6.60974C29.5889 6.00466 29.0795 5.51198 28.5403 5.027C28.5143 5.00581 28.4961 5.02307 28.5143 5.04892ZM26.0232 3.21603C23.5155 1.73324 20.6034 0.889648 17.4639 0.889648C14.3025 0.889648 11.3026 1.7627 8.78584 3.28475C8.03093 3.74307 7.60603 4.11035 7.60603 4.58249C7.60603 5.97424 10.9033 7.47067 16.753 7.47067C22.542 7.47067 27.0321 5.83158 27.0321 4.25382C27.0321 3.87722 26.6984 3.61374 26.0232 3.21603Z" fill="#00A8E0"></path>
</svg><style>@media (prefers-color-scheme: light) { :root { filter: none; } }
@media (prefers-color-scheme: dark) { :root { filter: none; } }
</style></svg>