<svg xmlns="http://www.w3.org/2000/svg" version="1.1" xmlns:xlink="http://www.w3.org/1999/xlink" width="35" height="34"><svg width="35" height="34" viewBox="0 0 35 34" fill="none" xmlns="http://www.w3.org/2000/svg">
<path d="M13.2842 2.04881C9.22965 4.43102 7.84046 9.70707 10.1814 13.8332C12.5222 17.9593 17.7068 19.373 21.7613 16.9908C25.8159 14.6086 27.205 9.33254 24.8642 5.20642C22.5233 1.08031 17.3387 -0.333406 13.2842 2.04881Z" fill="#E9AF19"></path>
<path d="M4.35228 17.7919C0.297736 20.1741 -1.09145 25.4502 1.24944 29.5763C3.59033 33.7024 8.77485 35.1161 12.8294 32.7339C16.8839 30.3517 18.2731 25.0757 15.9322 20.9495C13.5913 16.8234 8.40682 15.4097 4.35228 17.7919Z" fill="#E9AF19"></path>
<path d="M30.6807 17.7919C34.7353 20.1741 36.1244 25.4502 33.7836 29.5763C31.4427 33.7024 26.2581 35.1161 22.2036 32.7339C18.1491 30.3517 16.7599 25.0757 19.1008 20.9495C21.4416 16.8234 26.6262 15.4097 30.6807 17.7919Z" fill="#E9AF19"></path>
</svg><style>@media (prefers-color-scheme: light) { :root { filter: none; } }
@media (prefers-color-scheme: dark) { :root { filter: none; } }
</style></svg>