<svg width="34" height="34" viewBox="0 0 34 34" fill="none" xmlns="http://www.w3.org/2000/svg">
<path fill-rule="evenodd" clip-rule="evenodd" d="M10.6504 1.37433C15.1709 0.728106 19.7606 0.728073 24.2811 1.37433C29.0527 2.05654 32.8021 5.80723 33.4838 10.5789C33.7443 12.4028 33.8971 14.239 33.9472 16.0773C33.9456 16.0506 33.9448 16.0236 33.9424 15.9969C33.8604 15.0839 33.1249 14.7963 32.2908 14.7963C31.4485 14.7963 30.7368 15.0842 30.6307 15.9969C30.6224 16.0816 30.6144 16.2339 30.6144 16.3186V18.3723C30.6132 18.4794 30.6187 18.5865 30.6307 18.693C30.7124 19.5805 31.4559 19.8936 32.2908 19.8936C33.1174 19.8935 33.8526 19.5865 33.9472 18.7188C33.8965 20.5539 33.743 22.387 33.4828 24.2077C32.8018 28.9723 29.0579 32.7212 24.2935 33.4037C19.7651 34.0522 15.1661 34.0519 10.6379 33.4017C5.87359 32.7177 2.12956 28.9687 1.44868 24.2039C1.19604 22.4358 1.04314 20.6566 0.988167 18.8749C1.12442 19.7335 1.87484 20.0037 2.68183 20.0037C3.53211 20.0036 4.23497 19.6989 4.34965 18.8873C4.39341 18.6212 4.39107 18.3493 4.34199 18.0841C4.14566 17.0612 2.35307 16.7565 2.21557 16.1903C2.19692 16.1071 2.1947 16.0209 2.20791 15.9366C2.22499 15.8371 2.27889 15.7479 2.35918 15.6867C2.43956 15.6255 2.54011 15.5963 2.64066 15.6063C2.69968 15.6016 2.75936 15.6098 2.81491 15.6302C2.87034 15.6506 2.92049 15.6833 2.96236 15.725C3.00416 15.7667 3.03651 15.8171 3.05714 15.8724C3.07776 15.9279 3.08649 15.9877 3.08203 16.0467V16.3512H4.26061V16.0046C4.26061 14.9396 3.33603 14.7782 2.66556 14.7781C1.82346 14.7781 1.14468 15.0658 1.01402 15.86C0.975899 16.0785 0.978336 16.3021 1.02168 16.5197C1.23425 17.5091 2.91055 17.7967 3.15671 18.4297C3.19603 18.5473 3.19829 18.6743 3.16437 18.7935C3.14373 18.8962 3.08473 18.9879 2.99969 19.0491C2.91475 19.1101 2.80953 19.1368 2.70577 19.1238C2.64491 19.1303 2.58291 19.124 2.52482 19.1047C2.46675 19.0854 2.41362 19.0534 2.36876 19.0118C2.32381 18.9701 2.288 18.9191 2.2644 18.8625C2.24086 18.8059 2.22985 18.7446 2.23185 18.6834V18.2114H0.971891C0.928353 15.6618 1.0865 13.1093 1.44773 10.5799C2.12922 5.80782 5.87845 2.05651 10.6504 1.37433ZM18.0052 14.7973C17.1797 14.7973 16.5009 15.0834 16.37 15.8696C16.332 16.0852 16.3352 16.306 16.3786 16.5206C16.5907 17.5101 18.2504 17.7976 18.4878 18.423C18.5269 18.5378 18.5302 18.6618 18.4964 18.7782C18.475 18.8797 18.4156 18.9694 18.3308 19.029C18.2458 19.0887 18.1406 19.1143 18.0378 19.0999C17.9774 19.1063 17.9163 19.0991 17.8588 19.0798C17.801 19.0604 17.748 19.0287 17.7037 18.9869C17.6594 18.9451 17.6249 18.8941 17.6022 18.8376C17.5794 18.781 17.5685 18.7203 17.5715 18.6595V18.1942H16.3212V18.5666C16.3213 19.6403 17.1389 19.9702 18.0225 19.9702C18.8645 19.9702 19.5595 19.6741 19.674 18.8625C19.7178 18.5993 19.7153 18.3301 19.6664 18.0678C19.4695 17.0534 17.695 16.757 17.5639 16.1903C17.5453 16.1071 17.5429 16.0208 17.5562 15.9366C17.572 15.8387 17.6246 15.7504 17.7037 15.6905C17.7829 15.6307 17.8827 15.6033 17.9813 15.6149C18.0397 15.6112 18.098 15.6208 18.1527 15.6417C18.2074 15.6626 18.2571 15.6948 18.2982 15.7365C18.3392 15.7782 18.3711 15.828 18.3911 15.883C18.4111 15.938 18.4187 15.9969 18.4141 16.0553V16.3531H19.584V16.0141C19.5838 14.9661 18.6677 14.7973 18.0052 14.7973ZM20.7932 14.9217V18.422C20.7872 18.5292 20.7904 18.637 20.8019 18.7437C20.8838 19.6568 21.5791 19.9539 22.4457 19.9539C23.3121 19.9538 24.0062 19.6564 24.0887 18.7437C24.0887 18.6926 24.0973 18.5152 24.0973 18.422V14.9217H22.9034V18.5321C22.905 18.5943 22.9018 18.657 22.8948 18.7188C22.8705 18.8196 22.8133 18.9093 22.732 18.9735C22.6504 19.0378 22.5487 19.0731 22.4448 19.0731C22.341 19.073 22.24 19.0378 22.1585 18.9735C22.0772 18.9093 22.02 18.8196 21.9958 18.7188C21.9889 18.657 21.9856 18.5943 21.9871 18.5321V14.9217H20.7932ZM6.00981 14.9304L5.14335 19.8007H6.41862L7.07253 15.2856L7.71209 19.8007H8.97779L8.11133 14.9304H6.00981ZM10.0242 14.9304L9.92659 19.8007H11.1042L11.1368 15.2856L11.9467 19.8007H13.1406L13.9583 15.2856L13.9918 19.8007H15.1675L15.0622 14.9304H13.1406L12.5432 18.7351L11.9467 14.9304H10.0242ZM25.4137 14.9304V19.75H26.5751L26.51 15.7001L27.6962 19.75H29.3793V14.9304H28.2103L28.2764 18.8538L27.1639 14.9304H25.4137Z" fill="#3275E0"/>
<path d="M32.2707 15.6666C32.3771 15.6666 32.4808 15.701 32.5656 15.7652C32.6504 15.8293 32.7118 15.9196 32.7408 16.0218C32.7518 16.0833 32.7573 16.1461 32.7571 16.2085V16.4794H33.951V16.2363C33.9576 16.511 33.9625 16.7858 33.9644 17.0606H32.2994V17.771H32.782V18.4824C32.7875 18.5445 32.7844 18.6076 32.7734 18.6691C32.7507 18.777 32.6888 18.8726 32.6001 18.9381C32.5334 18.9872 32.4546 19.0171 32.3732 19.0243H32.2075C32.1246 19.0171 32.0445 18.9879 31.9758 18.939C31.8844 18.8739 31.8189 18.778 31.792 18.6691C31.7851 18.6072 31.783 18.5445 31.7844 18.4824V16.2506C31.7813 16.1743 31.7868 16.097 31.8006 16.0218C31.8296 15.9196 31.8911 15.8293 31.9758 15.7652C32.0607 15.7011 32.1644 15.6666 32.2707 15.6666Z" fill="#3275E0"/>
</svg>
