<svg width="36" height="34" viewBox="0 0 36 34" fill="none" xmlns="http://www.w3.org/2000/svg">
<path d="M13.9873 2.04881C9.93277 4.43102 8.54359 9.70707 10.8845 13.8332C13.2254 17.9593 18.4099 19.373 22.4644 16.9908C26.519 14.6086 27.9082 9.33254 25.5673 5.20642C23.2264 1.08031 18.0419 -0.333406 13.9873 2.04881Z" fill="#222C29"/>
<path d="M5.0554 17.7919C1.00086 20.1741 -0.388328 25.4502 1.95256 29.5763C4.29345 33.7024 9.47798 35.1161 13.5325 32.7339C17.5871 30.3517 18.9763 25.0757 16.6354 20.9495C14.2945 16.8234 9.10995 15.4097 5.0554 17.7919Z" fill="#222C29"/>
<path d="M31.3838 17.7919C35.4384 20.1741 36.8276 25.4502 34.4867 29.5763C32.1458 33.7024 26.9613 35.1161 22.9067 32.7339C18.8522 30.3517 17.463 25.0757 19.8039 20.9495C22.1448 16.8234 27.3293 15.4097 31.3838 17.7919Z" fill="#222C29"/>
</svg>
