<svg width="37" height="34" viewBox="0 0 37 34" fill="none" xmlns="http://www.w3.org/2000/svg">
<path d="M7.67918 4.56452C7.17042 5.1894 7.25696 5.78576 7.54788 6.58492C7.74904 7.13681 7.1695 7.71775 6.83555 8.05173C5.52868 9.51967 4.19176 11.4531 4.06165 14.8557C3.92756 17.9651 4.86015 20.7262 5.15122 22.1936C5.48633 23.748 5.52898 24.2567 5.57255 24.5471C6.74928 23.5413 8.01349 22.5705 9.26062 21.6988C11.3236 20.3625 12.9488 19.3455 14.4184 18.5898C17.6874 16.8321 18.5304 17.0348 15.9293 18.5457C13.3786 20.0545 10.8614 21.7699 9.17636 23.3243C2.46453 29.2375 3.48036 32.2168 4.1469 32.9296L4.40067 33.1667C4.66281 33.3914 4.98398 33.5866 5.61566 33.8153L5.8175 33.9025H0.86545C0.788708 33.9048 0.711468 33.8916 0.64009 33.8634C0.568769 33.835 0.503335 33.7922 0.449023 33.7379C0.394755 33.6836 0.351989 33.6182 0.323605 33.5469C0.295243 33.4754 0.281207 33.3983 0.283432 33.3215V19.1395C0.280478 16.2431 0.968156 13.3874 2.28914 10.8099C3.61012 8.23249 5.52723 6.00733 7.88004 4.31858L7.67918 4.56452Z" fill="#1355BF"/>
<path d="M36.6214 17.9764C36.6214 18.2674 36.6654 18.6888 36.6655 19.067V33.3068C36.6677 33.3838 36.6537 33.4606 36.6253 33.5322C36.5968 33.6036 36.5542 33.6689 36.4999 33.7232C36.4455 33.7775 36.3802 33.8203 36.3088 33.8487C36.2374 33.877 36.1602 33.8901 36.0834 33.8878H13.0428C13.0551 33.8842 13.3337 33.8012 13.3779 33.8006C16.3952 33.1756 19.9272 31.9118 23.5299 29.8921C30.664 26.201 35.329 21.4495 36.5782 17.9764L36.6214 17.802V17.9764Z" fill="#1355BF"/>
<path d="M17.1727 24.4854C15.1776 25.7486 13.5131 27.0819 12.2873 28.3077C12.712 28.74 13.2219 29.0792 13.7845 29.3042C13.8503 29.3305 13.9165 29.3556 13.9834 29.3787C13.9161 29.3555 13.8488 29.3307 13.7825 29.3042C13.2202 29.0791 12.7099 28.7398 12.2854 28.3077C13.5113 27.0817 15.1771 25.7488 17.1727 24.4854Z" fill="#1355BF"/>
<path d="M18.2711 0.905837C20.9569 0.870878 23.6183 1.43153 26.0617 2.54705C28.505 3.6626 30.6713 5.30582 32.4042 7.35801C34.1371 9.41036 35.3939 11.8218 36.0844 14.4177C36.0702 14.4038 35.8173 14.1613 35.1546 13.8651C34.6893 13.664 34.0643 13.4877 33.1782 13.3134C32.0453 13.1123 30.912 13.0661 29.6048 12.3542C27.2948 11.0896 24.1845 5.64131 19.2441 4.21766C16.8906 3.54721 15.0458 3.79589 14.2901 3.92665C13.8682 4.01446 13.0691 4.10021 12.7782 3.7248C12.1977 2.9694 11.7322 2.50502 10.846 2.67933C10.7299 2.66487 10.5266 2.75085 10.5266 2.75085L10.9822 2.53431C13.2712 1.49383 15.7534 0.938717 18.2711 0.905837Z" fill="#1355BF"/>
<path d="M26.2366 26.7707C25.2224 27.4389 24.0855 28.1239 22.8189 28.8186C18.5263 31.1998 13.4839 32.3882 10.7386 32.3391C11.6935 32.3561 12.9259 32.2226 14.3081 31.9423C14.8266 31.8371 15.3662 31.7117 15.92 31.565C16.6583 31.3696 17.422 31.1372 18.1951 30.8684C18.3883 30.8012 18.582 30.7314 18.7762 30.6597C20.1355 30.1573 21.5125 29.5433 22.8189 28.8186C23.8322 28.2628 24.7615 27.7131 25.6124 27.1734L26.2366 26.7707Z" fill="#1355BF"/>
<path d="M32.7123 20.5096C32.2864 21.4349 31.4621 22.5223 30.1872 23.7186L29.7914 24.0801C31.2934 22.7407 32.244 21.5274 32.7123 20.5096Z" fill="#1355BF"/>
<path d="M32.1067 17.8572C32.4997 17.9481 32.7689 18.1201 32.9014 18.3726L32.9317 18.4442C33.0814 18.7983 33.1043 19.2281 32.9895 19.7218C33.0087 19.6393 33.0231 19.5587 33.0346 19.4798C33.0922 19.0866 33.0564 18.7392 32.9317 18.4442L32.9014 18.3726C32.793 18.1661 32.5926 18.0135 32.3086 17.915L32.1067 17.8572Z" fill="#1355BF"/>
<path d="M31.6305 17.7906L31.8804 17.8161C31.7212 17.7937 31.546 17.7817 31.3552 17.7808C31.4509 17.7813 31.5427 17.7847 31.6305 17.7906Z" fill="#1355BF"/>
<path fill-rule="evenodd" clip-rule="evenodd" d="M18.4756 0.904575C23.2999 0.904691 27.9265 2.82139 31.3378 6.23288C34.7493 9.64463 36.6661 14.2721 36.6661 19.0971V31.8868C36.6661 32.1492 36.6146 32.4095 36.5143 32.652C36.4138 32.8946 36.2659 33.1159 36.0802 33.3016C35.8946 33.4871 35.674 33.6343 35.4316 33.7347C35.189 33.8351 34.9288 33.8866 34.6663 33.8866H2.28396C2.02143 33.8866 1.76127 33.8352 1.51871 33.7347C1.27626 33.6343 1.05567 33.4872 0.870064 33.3016C0.684382 33.1159 0.53649 32.8946 0.436 32.652C0.335631 32.4095 0.284126 32.1492 0.284126 31.8868V19.0971C0.284135 14.2721 2.20096 9.64463 5.61243 6.23288C9.0239 2.82126 13.6512 0.904575 18.4756 0.904575ZM32.9014 18.3726C32.1427 16.9263 26.9034 18.1283 19.5809 22.0189C12.3596 25.8843 8.08692 30.3742 8.75279 31.7114C9.42412 33.1347 16.8472 32.1312 22.8189 28.8186C30.9254 24.372 33.7299 20.3334 32.9317 18.4442L32.9014 18.3726ZM14.6974 4.57893C14.686 4.57821 14.2698 4.55305 14.2379 4.69063C14.2055 4.83011 14.4681 4.84545 14.4681 4.84545C15.6202 5.13406 17.1201 5.80855 18.5648 7.67225C20.818 10.5791 20.7354 11.0429 21.7483 12.6635C22.4462 13.7801 22.8603 14.325 23.1083 14.5898C23.1083 14.5898 23.2087 14.7866 23.4943 14.8632C23.7798 14.9398 24.0205 14.8074 24.0205 14.8074C24.5666 14.6356 25.6071 14.3123 26.7081 14.0598C26.7081 14.0598 26.8447 14.0588 26.861 13.951C26.8772 13.8432 26.7326 13.7864 26.7326 13.7864C26.3333 13.5705 25.6218 13.2567 24.8337 12.397C23.8339 11.306 21.0751 7.13419 19.0772 5.75571C17.7318 4.82745 16.0832 4.61713 14.6974 4.57893Z" fill="#1355BF"/>
<path fill-rule="evenodd" clip-rule="evenodd" d="M18.2218 0.907514C15.7209 0.946952 13.2563 1.50053 10.9822 2.53431L10.5266 2.75085C10.537 2.74642 10.733 2.66525 10.846 2.67933C11.7322 2.50502 12.1977 2.9694 12.7782 3.7248C13.0691 4.10021 13.8682 4.01446 14.2901 3.92665C15.0458 3.79589 16.8906 3.54721 19.2441 4.21766C24.1845 5.64131 27.2948 11.0896 29.6048 12.3542C30.912 13.0661 32.0453 13.1123 33.1782 13.3134C34.0643 13.4877 34.6893 13.664 35.1546 13.8651C35.6781 14.0991 35.9455 14.3006 36.042 14.3811C36.3414 15.4962 36.5364 16.6426 36.6191 17.8066L36.5782 17.9764C35.329 21.4495 30.664 26.201 23.5299 29.8921C19.9272 31.9118 16.3952 33.1756 13.3779 33.8006C13.3362 33.8009 13.0764 33.8783 13.0454 33.8876H5.78096L5.61566 33.8153C4.98398 33.5866 4.66281 33.3914 4.40067 33.1667L4.1469 32.9296C3.48036 32.2168 2.46453 29.2375 9.17636 23.3243C10.8614 21.7699 13.3786 20.0545 15.9293 18.5457C18.5304 17.0348 17.6874 16.8321 14.4184 18.5898C12.9488 19.3455 11.3236 20.3625 9.26062 21.6988C8.01349 22.5705 6.74928 23.5413 5.57255 24.5471C5.52898 24.2567 5.48633 23.748 5.15122 22.1936C4.86015 20.7262 3.92756 17.9651 4.06165 14.8557C4.19176 11.4531 5.52868 9.51967 6.83555 8.05173C7.1695 7.71775 7.74904 7.13681 7.54788 6.58492C7.25696 5.78576 7.17042 5.1894 7.67918 4.56452L7.88004 4.31858C5.52723 6.00733 3.61012 8.23249 2.28914 10.8099C0.970949 13.382 0.284134 16.2316 0.284126 19.1215L0.284126 19.0971C0.284135 14.2721 2.20096 9.64463 5.61243 6.23288C8.96409 2.8811 13.4891 0.973411 18.2218 0.907514ZM31.2928 17.7821C31.2491 17.7824 31.2047 17.7837 31.1595 17.7851C31.1092 17.7866 31.0579 17.788 31.0057 17.7909C30.948 17.7942 30.8893 17.7988 30.8293 17.8037C30.7839 17.8074 30.7378 17.8108 30.6911 17.8154C30.6261 17.8219 30.5598 17.8297 30.4922 17.838C30.4407 17.8443 30.3885 17.8512 30.3355 17.8585C30.2807 17.8662 30.2252 17.8743 30.1689 17.883C30.102 17.8934 30.0341 17.9044 29.9651 17.9164C29.9176 17.9246 29.8696 17.9338 29.8211 17.9428C29.7364 17.9586 29.6501 17.9747 29.5624 17.9928C29.5248 18.0005 29.4869 18.0081 29.4487 18.0163C29.355 18.0364 29.2596 18.0573 29.1626 18.08C29.1021 18.0941 29.0412 18.1099 28.9794 18.1251C28.9091 18.1423 28.8377 18.1594 28.7658 18.178C28.6834 18.1992 28.6004 18.2227 28.5159 18.2456C28.4533 18.2626 28.3896 18.2786 28.3258 18.2965C28.246 18.319 28.1655 18.3431 28.0838 18.3671C27.9974 18.3924 27.9096 18.4175 27.8212 18.4445C27.7812 18.4567 27.7412 18.4701 27.7007 18.4827C27.5822 18.5195 27.462 18.5576 27.3401 18.5973C27.3119 18.6066 27.2833 18.6154 27.2549 18.6248C26.9544 18.7238 26.644 18.8316 26.3241 18.9481C26.2734 18.9666 26.2224 18.9851 26.1712 19.004C26.0411 19.052 25.9094 19.1011 25.7763 19.1519C25.7385 19.1664 25.7007 19.1813 25.6627 19.196C25.5214 19.2505 25.3781 19.3059 25.2335 19.3636C25.146 19.3984 25.0586 19.4353 24.9699 19.4713C24.8756 19.5097 24.7804 19.5483 24.6848 19.5879C24.6327 19.6095 24.5805 19.6316 24.528 19.6536C23.0259 20.2829 21.3651 21.0709 19.5809 22.0189C17.3242 23.2269 15.3552 24.4953 13.7352 25.7099C13.4112 25.9528 13.101 26.1934 12.8054 26.4311C12.5099 26.6686 12.2289 26.9032 11.9627 27.1336C11.8296 27.2489 11.7003 27.3634 11.5747 27.4765C10.9466 28.0423 10.4134 28.5802 9.98247 29.0756C9.81011 29.2737 9.65424 29.4652 9.51509 29.6488C9.44526 29.741 9.37943 29.8311 9.31815 29.9193C8.76861 30.7099 8.56554 31.3353 8.75279 31.7114C8.87867 31.9783 9.24189 32.1601 9.78846 32.2571C10.0617 32.3057 10.3805 32.3327 10.7386 32.3391C10.8578 32.3412 10.9817 32.341 11.1093 32.3385C11.4928 32.3308 11.9131 32.3018 12.3635 32.2522C13.2639 32.1531 14.2847 31.9711 15.3715 31.7055C16.0964 31.5284 16.8506 31.3143 17.6183 31.0637C18.0017 30.9385 18.388 30.8031 18.7762 30.6597C19.1647 30.5161 19.5551 30.3643 19.9444 30.2024C20.3334 30.0407 20.7218 29.8699 21.1074 29.69C21.3002 29.6001 21.4924 29.5081 21.6836 29.4137C21.8751 29.3191 22.0654 29.2218 22.2548 29.1227C22.4439 29.0237 22.6325 28.922 22.8189 28.8186C23.3254 28.5408 23.8107 28.2652 24.2762 27.991C24.975 27.5793 25.6278 27.1718 26.2366 26.7707C26.8451 26.3698 27.4096 25.975 27.931 25.5874C28.1049 25.4582 28.2741 25.3299 28.4385 25.2024C29.0958 24.6924 29.6774 24.1971 30.1872 23.7186C30.6971 23.2401 31.1354 22.7785 31.5044 22.3383C32.0581 21.6778 32.4568 21.0648 32.7123 20.5096C32.7973 20.3247 32.8666 20.1455 32.9203 19.974C33.0276 19.6307 33.0729 19.315 33.0594 19.0304C33.056 18.9592 33.0485 18.89 33.0378 18.8227C33.0165 18.6885 32.9815 18.562 32.9317 18.4442L32.9014 18.3726C32.8592 18.2922 32.8006 18.2224 32.7312 18.1584C32.7113 18.14 32.6905 18.1225 32.6684 18.1055C32.648 18.0897 32.6271 18.074 32.6048 18.0594C32.5789 18.0425 32.5518 18.0268 32.5234 18.0114C32.4987 17.998 32.4736 17.9844 32.447 17.9722C32.4178 17.9588 32.3873 17.947 32.3559 17.935C32.3272 17.924 32.2982 17.9124 32.2677 17.9026C32.2349 17.8921 32.2007 17.8834 32.1658 17.8742C32.1302 17.8649 32.0938 17.8556 32.056 17.8478C32.022 17.8407 31.987 17.8351 31.9512 17.8292C31.9111 17.8225 31.8701 17.8158 31.8277 17.8105C31.7873 17.8055 31.7458 17.8015 31.7033 17.7978C31.6643 17.7944 31.6245 17.7912 31.5838 17.789C31.5362 17.7864 31.4876 17.7852 31.4378 17.7841C31.3904 17.7831 31.3421 17.7818 31.2928 17.7821ZM14.6974 4.57893C14.686 4.57821 14.2698 4.55305 14.2379 4.69063C14.2055 4.83011 14.4681 4.84545 14.4681 4.84545C15.6202 5.13406 17.1201 5.80855 18.5648 7.67225C20.818 10.5791 20.7354 11.0429 21.7483 12.6635C22.4462 13.7801 22.8603 14.325 23.1083 14.5898C23.1083 14.5898 23.2087 14.7866 23.4943 14.8632C23.7798 14.9398 24.0205 14.8074 24.0205 14.8074C24.5666 14.6356 25.6071 14.3123 26.7081 14.0598C26.7081 14.0598 26.8447 14.0588 26.861 13.951C26.8772 13.8432 26.7326 13.7864 26.7326 13.7864C26.3333 13.5705 25.6218 13.2567 24.8337 12.397C23.8339 11.306 21.0751 7.13419 19.0772 5.75571C17.7318 4.82745 16.0832 4.61713 14.6974 4.57893Z" fill="#E00B64"/>
<path d="M36.6211 17.8262C36.6506 18.2478 36.6661 18.6716 36.6661 19.0971V31.8868C36.6661 31.8933 36.6652 31.9008 36.6652 31.9073L36.6655 19.067C36.6654 18.6888 36.6214 18.2674 36.6214 17.9764L36.6211 17.8262Z" fill="#E00B64"/>
<path d="M18.6882 0.906534C18.5649 0.905313 18.4414 0.905241 18.3179 0.906534C18.3704 0.90608 18.4231 0.904575 18.4756 0.904575C18.5465 0.904576 18.6174 0.905706 18.6882 0.906534Z" fill="#E00B64"/>
<path d="M15.5558 29.6156C14.9501 29.6357 14.3472 29.5293 13.7845 29.3042C13.2219 29.0792 12.712 28.74 12.2873 28.3077C13.9724 26.6225 16.4859 24.7335 19.549 23.1039C19.8507 23.6891 20.0114 24.3367 20.0184 24.995C20.0473 27.4656 18.0859 29.5284 15.5578 29.6156" fill="#E9AF19"/>
</svg>
