<svg width="34" height="34" viewBox="0 0 34 34" fill="none" xmlns="http://www.w3.org/2000/svg">
<path d="M28.3107 26.1022C27.9759 26.299 27.6071 26.5156 27.3348 26.6769C26.8992 26.9349 26.4388 27.2044 26.3117 27.2757C26.1845 27.347 25.7014 27.6287 25.2385 27.9016C24.9517 28.0706 24.376 28.41 23.736 28.7872H20.1101C20.8339 28.4118 21.7172 27.9541 22.3508 27.6308C23.2113 27.1915 24.6605 26.4482 25.5705 25.9778C26.3716 25.5637 27.5264 24.968 28.3107 24.5656V26.1022Z" fill="white"/>
<path d="M26.7269 28.0019C26.8483 28.0192 26.8652 28.0608 26.8814 28.372C26.8884 28.5065 26.8783 28.6479 26.8563 28.7872H25.8563C25.9257 28.663 26.0258 28.5499 26.2114 28.364C26.4919 28.0829 26.6258 27.9877 26.7269 28.0019Z" fill="white"/>
<path d="M19.9406 25.7221C19.9747 25.6334 19.9827 25.6354 20.5314 25.8003C21.1378 25.9828 21.7162 26.6515 21.7179 27.1734C21.7185 27.3461 21.717 27.3467 21.422 27.3118C21.0282 27.2651 20.7128 27.0962 20.415 26.7732C20.1648 26.5014 19.882 25.8749 19.9406 25.7221Z" fill="white"/>
<path d="M25.1562 23.1443C25.4862 23.1967 25.9636 23.4124 26.2124 23.6228C26.4523 23.8259 26.7127 24.3422 26.7129 24.6137V24.8204L26.4421 24.7832C25.7243 24.6847 25.1054 24.077 24.9386 23.3068L24.8944 23.1022L25.1562 23.1443Z" fill="white"/>
<path d="M27.6758 21.9758C27.6758 21.83 27.7865 21.825 28.2214 21.9528C28.2518 21.9617 28.2816 21.9731 28.3107 21.9829V23.1122C28.2666 23.0729 28.2231 23.031 28.1823 22.9859C27.9537 22.7327 27.6763 22.1798 27.6758 21.9758Z" fill="white"/>
<path d="M23.6688 20.2547C23.7633 20.0085 24.7971 20.4424 25.097 20.8545C25.3321 21.1777 25.4592 21.4846 25.4371 21.6749C25.4211 21.8121 25.3961 21.8253 25.1783 21.8093C24.855 21.7855 24.3492 21.5331 24.1492 21.2968C23.9286 21.0361 23.6242 20.3759 23.6688 20.2547Z" fill="white"/>
<path d="M10.8423 16.5787C11.1856 16.4715 11.3654 16.4719 11.3659 16.5797C11.3657 16.6916 11.177 17.1159 11.0169 17.3901H9.76009C9.80313 17.3115 9.85063 17.2355 9.90051 17.1694C10.0681 16.9477 10.4716 16.6944 10.8423 16.5787Z" fill="white"/>
<path d="M23.1683 16.6208C23.3727 16.3778 23.5025 16.4031 23.6036 16.706C23.6807 16.9375 23.7177 17.1687 23.7179 17.3901H22.7751C22.8439 17.1151 22.974 16.8518 23.1683 16.6208Z" fill="white"/>
<path d="M28.3107 16.2025C28.1415 16.2342 28.0056 16.2393 27.9817 16.2005C27.9342 16.1191 28.1484 15.5442 28.3107 15.2988V16.2025Z" fill="white"/>
<path d="M18.726 14.0892C18.8712 14.0903 19.3544 14.2401 19.5625 14.349C19.9432 14.5483 20.347 15.1412 20.3789 15.5446C20.3945 15.7414 20.3933 15.7429 20.1452 15.7321C19.7673 15.7157 19.2466 15.4439 19.0309 15.1504C18.807 14.8454 18.621 14.4299 18.6206 14.2346C18.6207 14.1363 18.6548 14.0889 18.726 14.0892Z" fill="white"/>
<path d="M25.3307 13.1694C25.3719 13.1028 25.6564 13.1536 26.0549 13.2998C26.5691 13.4887 27.0478 14.0603 27.1131 14.5626C27.1422 14.7876 27.0712 14.8492 26.8493 14.7933C26.2065 14.6314 25.8961 14.434 25.6327 14.017C25.4653 13.7519 25.285 13.2461 25.3307 13.1694Z" fill="white"/>
<path d="M21.065 9.63987C21.1294 9.70055 21.086 10.2367 20.9927 10.5366C20.8462 11.0073 20.5987 11.2791 20.0198 11.6017C19.8199 11.7132 19.735 11.6712 19.7049 11.4463C19.6381 10.9443 19.9525 10.2694 20.4 9.95381C20.747 9.70942 21.0078 9.58629 21.065 9.63987Z" fill="white"/>
<path d="M26.2385 8.44027C26.5963 8.29522 26.8639 8.27908 26.8643 8.40216C26.8643 8.61198 26.6004 9.16605 26.3829 9.41319C26.1407 9.68797 25.7586 9.89008 25.3438 9.96384C25.0559 10.0149 25.0119 9.92174 25.1432 9.53656C25.3268 8.99807 25.643 8.68181 26.2385 8.44027Z" fill="white"/>
<path d="M22.6527 6.77829C22.6529 6.52743 22.7613 6.50838 23.1502 6.69103C23.7344 6.96556 24.1056 7.45719 24.1813 8.05913C24.2135 8.3164 24.2029 8.38372 24.1261 8.41319C23.9764 8.46936 23.2783 8.09277 23.074 7.84549C22.8547 7.57946 22.6529 7.06724 22.6527 6.77829Z" fill="white"/>
<path fill-rule="evenodd" clip-rule="evenodd" d="M33.413 33.8895H0.413086V0.889648H33.413V33.8895ZM5.51537 7.41721C5.89779 7.64926 6.22514 8.01135 6.30875 8.35903C6.40898 8.77691 6.36813 8.87417 6.11617 8.81941C5.89637 8.77145 5.69545 8.69223 5.51537 8.58771V9.32091C5.65341 9.42842 5.7724 9.55124 5.8564 9.67898C6.03867 9.95642 6.17928 10.4529 6.09812 10.5315C6.03083 10.5962 5.77806 10.5521 5.51537 10.4513V24.4643C6.04364 24.737 6.46941 24.9572 6.58357 25.02C6.74903 25.1109 7.53464 25.5165 8.3288 25.9217C9.12284 26.3266 10.1386 26.8474 10.5856 27.0791C11.0324 27.3107 11.7502 27.6836 12.1803 27.9066C12.834 28.2455 13.4039 28.5383 13.8895 28.7872H10.2756C9.89991 28.5665 9.33302 28.2333 8.81025 27.9247C8.08207 27.4947 6.7548 26.7157 5.86141 26.1935C5.75086 26.1289 5.63525 26.06 5.51537 25.9899V28.8213H28.3117V6.02504H25.9476C25.9484 6.03224 25.9491 6.03959 25.9496 6.0471C25.9899 6.67837 25.6378 7.35321 25.1161 7.64288C24.7038 7.87173 24.6189 7.81026 24.6487 7.30587C24.6817 6.74632 24.8748 6.37181 25.3157 6.02504H19.1984C18.1047 6.67785 17.8035 6.88539 17.6808 7.06214L17.5143 7.30086L17.5875 9.95882C17.6276 11.4199 17.6595 12.7581 17.6588 12.9317C17.6579 13.1665 17.6805 13.2476 17.745 13.2477C17.8376 13.2443 19.6885 12.3072 22.7099 10.7362C24.5981 9.75433 24.5406 9.81207 24.5364 8.92272C24.5327 8.14421 24.6273 8.40419 24.6979 9.36705C24.7505 10.0854 24.7499 10.089 24.6056 10.2086C24.5253 10.275 23.8841 10.6661 23.1803 11.0762C20.527 12.6219 18.3674 13.9234 18.1703 14.0962C18.0583 14.1946 17.906 14.3994 17.8323 14.5516L17.6989 14.8284L17.729 17.3901H17.733C17.7485 18.1651 17.7652 19.0219 17.7751 19.5927C17.7893 20.4119 17.8177 21.0991 17.8373 21.1243C17.8833 21.1702 18.964 20.6257 24.3368 17.8445C24.6003 17.708 24.9018 17.5541 25.2194 17.3901L26.3418 16.7712C26.3524 16.7637 26.3625 16.7568 26.3729 16.7512C27.3658 16.214 27.3585 16.0745 27.3909 15.342C27.4049 15.0254 27.3909 14.5685 27.3608 14.3269C27.3309 14.0863 27.3295 13.8755 27.3568 13.8575C27.436 13.8086 27.4529 13.9082 27.6066 15.2768C27.6789 15.9209 27.7148 16.7299 27.7099 17.0691C27.7109 17.1561 27.7083 17.2111 27.6988 17.2296C27.6811 17.2633 27.6431 17.3005 27.5103 17.3901H27.5043C27.2581 17.5346 27.0111 17.6784 26.7731 17.8184C25.5652 18.5287 24.3598 19.2367 24.095 19.3911C18.933 22.4017 18.4265 22.7358 18.1161 23.3439C17.862 23.8421 17.8458 24.1306 17.9035 27.041C17.9165 27.6984 17.9336 28.3076 17.9486 28.7872H16.1071C16.1742 27.164 16.192 24.1812 16.1001 23.8013C15.9386 23.1381 15.5317 22.7262 14.3157 21.9959C13.2987 21.385 10.7559 19.8816 8.23954 18.4051C7.66391 18.0674 7.04428 17.7028 6.51236 17.3901H8.80924C9.33491 17.6601 9.72505 17.8613 9.77313 17.8906C9.84072 17.9318 10.6528 18.3526 11.5785 18.8254C12.5047 19.2984 13.5736 19.8509 13.9547 20.0541C15.2584 20.7493 16.1742 21.1976 16.2124 21.1594C16.2335 21.1267 16.2722 19.6723 16.2997 17.9177C16.3026 17.7325 16.3032 17.5568 16.3057 17.3901C16.2769 16.8926 16.2103 16.7603 16.085 16.6027C15.8835 16.3492 15.5018 16.0397 15.0971 15.8023C14.8821 15.6763 14.5434 15.472 14.3448 15.349C13.9737 15.1191 11.8573 13.8678 11.407 13.6118C11.1178 13.4474 10.1451 12.8793 8.71797 12.0421C8.17213 11.7218 7.43165 11.2884 7.07204 11.0782L6.41708 10.696L6.4592 10.3901C6.50848 10.0253 6.58049 9.41002 6.67485 8.55161C6.78085 7.58769 6.87638 7.63621 6.82931 8.62984C6.77706 9.73072 6.8173 10.016 7.06101 10.2597C7.16673 10.365 7.8198 10.7406 8.51235 11.0952C9.20532 11.4501 10.286 12.0066 10.9146 12.3309C11.5434 12.6555 12.7352 13.2679 13.5625 13.692C14.3896 14.1159 15.3471 14.6094 15.6899 14.7903C16.0315 14.9705 16.3333 15.0962 16.3619 15.0691C16.3889 15.0409 16.4293 13.5021 16.4521 11.6499L16.4943 8.28079L16.3218 8.03305C15.8624 7.37217 15.7722 7.29245 13.5866 6.02504H13.051V6.02704C13.0505 6.25098 12.7127 6.89829 12.5043 7.07418C12.2154 7.31781 11.7374 7.52775 11.4712 7.52854C11.2053 7.52921 11.1959 7.48602 11.3649 7.03506C11.5338 6.58397 11.7937 6.29906 12.2265 6.08923C12.2783 6.06411 12.3305 6.04474 12.3799 6.02504H11.3549C11.1303 6.32985 10.8308 6.56003 10.5184 6.65292C10.0823 6.78236 9.92307 6.77632 9.92258 6.62985C9.92258 6.47013 10.0066 6.2393 10.1262 6.02504H6.66582C6.84633 6.43559 6.89225 7.15973 6.73202 7.25873C6.65394 7.30416 6.24603 7.03895 5.9898 6.77528C5.7999 6.5798 5.68483 6.33679 5.62972 6.02504H5.51537V7.41721ZM16.9125 10.8726C16.9189 10.6015 16.9253 10.3162 16.9326 10.027H16.9125V10.8726ZM15.1041 6.02504C15.6925 6.32884 16.1544 6.57063 16.2084 6.60678C16.2736 6.65078 16.3753 6.68695 16.4341 6.68702C16.5281 6.68693 16.5404 6.62469 16.5404 6.16144C16.5404 6.12897 16.5414 6.08263 16.5424 6.02504H15.1041ZM17.5474 6.02504C17.5557 6.20907 17.5621 6.31291 17.5685 6.32092C17.5883 6.33963 17.6754 6.30513 18.2355 6.02504H17.5474Z" fill="white"/>
<path d="M10.8423 16.5746C11.1856 16.4675 11.3654 16.4679 11.3659 16.5756C11.3657 16.6876 11.177 17.1119 11.0169 17.3861H9.76009C9.80313 17.3075 9.85063 17.2315 9.90051 17.1654C10.0681 16.9437 10.4716 16.6904 10.8423 16.5746Z" fill="#35BA20"/>
<path d="M15.2626 16.3129C15.5211 16.3061 15.5182 16.4119 15.2435 16.9608C15.1616 17.1245 15.0677 17.2654 14.9647 17.3861H13.7691C13.9493 16.9222 14.3912 16.5233 14.9165 16.363C14.9993 16.3378 15.1551 16.3157 15.2626 16.3129Z" fill="#35BA20"/>
<path d="M13.5043 15.5315C14.1462 15.3089 14.2168 15.4028 13.9135 16.0782C13.6703 16.6194 13.1495 16.9967 12.5856 17.041L12.3589 17.0591L12.3709 16.7983C12.3955 16.2654 12.8488 15.7591 13.5043 15.5315Z" fill="#35BA20"/>
<path d="M10.5836 13.9377C10.922 13.7844 11.2709 13.7374 11.3328 13.8364C11.385 13.9214 11.1436 14.5187 10.9477 14.7893C10.7349 15.0828 10.1302 15.4041 9.79119 15.4041C9.58011 15.4041 9.561 15.3908 9.5615 15.2396C9.56245 14.9995 9.81522 14.5023 10.05 14.2798C10.1615 14.174 10.4016 14.0203 10.5836 13.9377Z" fill="#35BA20"/>
<path d="M9.82328 13.0019C10.0202 12.9991 10.0488 13.0143 10.0128 13.1032C9.98932 13.1611 9.94986 13.2784 9.92459 13.362C9.82603 13.6885 9.61382 14.0179 9.36992 14.2266C9.03441 14.5137 8.31141 14.7298 8.21346 14.5726C8.16946 14.4983 8.33629 13.9798 8.47825 13.7502C8.63365 13.4992 8.92874 13.2738 9.29971 13.1233C9.45985 13.0584 9.69572 13.0038 9.82328 13.0019Z" fill="#35BA20"/>
<path d="M7.82931 12.4001C8.22981 12.2001 8.65833 12.1511 8.65879 12.3049C8.65852 12.5415 8.38148 13.0978 8.14826 13.3309C7.76889 13.7101 6.85455 14.0081 6.85338 13.7532C6.85358 13.5657 7.11511 12.9795 7.28468 12.7863C7.38273 12.6748 7.62771 12.5009 7.82931 12.4001Z" fill="#35BA20"/>
<path d="M15.4281 12.1213C15.8494 11.9878 15.8984 12.0035 15.8513 12.2617C15.8287 12.3858 15.7229 12.6501 15.6156 12.8485C15.3822 13.2804 15.0133 13.5572 14.5234 13.6669C14.07 13.7683 14.0169 13.7098 14.1573 13.2647C14.3306 12.7157 14.7552 12.3346 15.4281 12.1213Z" fill="#35BA20"/>
<path d="M7.12419 11.4533C7.27814 11.4629 7.30245 11.4867 7.28869 11.6148C7.24285 12.0393 6.78912 12.6657 6.37395 12.8776C6.13427 12.9998 5.63276 13.092 5.53543 13.032C5.43614 12.9703 5.74892 12.2153 5.96873 11.9859C6.15932 11.7875 6.50181 11.581 6.7932 11.4894C6.87597 11.4635 7.025 11.4471 7.12419 11.4533Z" fill="#35BA20"/>
<path d="M14.3679 11.3189C14.493 11.3151 14.5063 11.3355 14.4762 11.4864C14.4058 11.8381 14.1138 12.3443 13.8463 12.5797C13.4891 12.8939 12.7698 13.1129 12.6608 12.9408C12.6079 12.8552 12.7931 12.343 12.9697 12.0862C13.1608 11.8085 13.4741 11.5888 13.8955 11.4393C14.0762 11.3752 14.2894 11.3213 14.3679 11.3189Z" fill="#35BA20"/>
<path d="M12.4652 10.7382C13.1135 10.4974 13.1721 10.5365 12.9637 11.0681C12.7748 11.55 12.5271 11.8549 12.1683 12.0491C11.8348 12.2296 11.3427 12.3242 11.2786 12.2206C11.2264 12.1333 11.4081 11.5761 11.5595 11.36C11.7357 11.1087 12.0499 10.8924 12.4652 10.7382Z" fill="#35BA20"/>
<path d="M11.1773 9.96183C11.7274 9.81113 11.7466 9.8339 11.5384 10.3901C11.3847 10.8009 11.006 11.233 10.6748 11.3741C10.3738 11.5021 10.0264 11.559 9.92559 11.4974C9.82233 11.4334 9.89069 11.1251 10.0931 10.7482C10.2743 10.4109 10.7207 10.0871 11.1773 9.96183Z" fill="#35BA20"/>
<path d="M9.69791 9.26474C10.2631 9.07214 10.3295 9.1111 10.1824 9.54759C9.94665 10.2458 9.56603 10.6047 8.87644 10.7783C8.4775 10.8786 8.40253 10.8044 8.51637 10.4262C8.69257 9.84125 9.05618 9.48337 9.69791 9.26474Z" fill="#35BA20"/>
<path d="M8.41707 8.45331C8.97069 8.2997 9.00968 8.3661 8.728 8.9849C8.4563 9.58169 7.94112 9.97066 7.37495 10.006C7.06775 10.025 7.0436 9.94946 7.21246 9.49844C7.40784 8.97633 7.81945 8.61928 8.41707 8.45331Z" fill="#35BA20"/>
<path d="M15.5866 7.47137C15.6877 7.45594 15.7534 7.63695 15.7059 7.80236C15.5697 8.27709 15.2479 8.70596 14.8875 8.89463C14.6206 9.03408 14.0569 9.15621 13.9888 9.08922C13.9539 9.05403 13.9772 8.89981 14.0489 8.684C14.2396 8.11192 14.7256 7.67101 15.3208 7.53055C15.4454 7.50119 15.5657 7.47474 15.5866 7.47137Z" fill="#35BA20"/>
<path d="M13.7651 6.7803C14.3623 6.59452 14.495 6.74069 14.2375 7.29986C13.9822 7.85422 13.496 8.22138 12.9266 8.28882C12.6359 8.32319 12.6297 8.3204 12.6297 8.16144C12.6299 7.67621 13.2297 6.94688 13.7651 6.7803Z" fill="#35BA20"/>
<path d="M8.47825 6.65191C8.75707 6.57907 8.89814 6.59318 8.89851 6.69304C8.89851 6.72471 8.8091 6.94604 8.69891 7.18451C8.46871 7.68258 8.13646 8.00742 7.70794 8.15341C7.29887 8.29273 7.09372 8.27844 7.0941 8.11129C7.09493 7.82101 7.22869 7.52202 7.48528 7.23667C7.76686 6.92363 8.02822 6.76948 8.47825 6.65191Z" fill="#35BA20"/>
<path d="M13.051 6.02504V6.02704C13.0505 6.25098 12.7127 6.89829 12.5043 7.07418C12.2154 7.31781 11.7374 7.52775 11.4712 7.52854C11.2053 7.52921 11.1959 7.48602 11.3649 7.03506C11.5338 6.58397 11.7937 6.29906 12.2265 6.08923C12.2783 6.06411 12.3305 6.04474 12.3799 6.02504H11.3549C11.1303 6.32985 10.8308 6.56003 10.5184 6.65292C10.0823 6.78236 9.92307 6.77632 9.92258 6.62985C9.92258 6.47013 10.0066 6.2393 10.1262 6.02504H11.3549H12.3799H13.051Z" fill="#35BA20"/>
<path d="M5.51537 7.41721C5.89779 7.64926 6.22514 8.01135 6.30875 8.35903C6.40898 8.77691 6.36813 8.87417 6.11617 8.81941C5.89637 8.77145 5.69545 8.69223 5.51537 8.58771V7.41721V6.02504H5.62972H6.66582C6.84633 6.43559 6.89225 7.15973 6.73202 7.25873C6.65394 7.30416 6.24603 7.03895 5.9898 6.77528C5.7999 6.5798 5.68483 6.33679 5.62972 6.02504H5.51537V7.41721Z" fill="#35BA20"/>
<path d="M5.8564 9.67898C5.7724 9.55124 5.65341 9.42842 5.51537 9.32091V10.4513C5.77806 10.5521 6.03083 10.5962 6.09812 10.5315C6.17928 10.4529 6.03867 9.95642 5.8564 9.67898Z" fill="#35BA20"/>
<path d="M23.1683 16.6168C23.3727 16.3738 23.5025 16.3991 23.6036 16.702C23.6807 16.9335 23.7177 17.1647 23.7179 17.3861H22.7751C22.8439 17.111 22.974 16.8478 23.1683 16.6168Z" fill="#F2C140"/>
<path d="M28.3107 16.1985C28.1415 16.2302 28.0056 16.2352 27.9817 16.1965C27.9342 16.1151 28.1484 15.5402 28.3107 15.2948V16.1985Z" fill="#F2C140"/>
<path d="M18.726 14.0852C18.8712 14.0863 19.3544 14.2361 19.5625 14.345C19.9432 14.5442 20.347 15.1372 20.3789 15.5405C20.3945 15.7374 20.3933 15.7389 20.1452 15.7281C19.7673 15.7116 19.2466 15.4398 19.0309 15.1464C18.807 14.8414 18.621 14.4259 18.6206 14.2306C18.6207 14.1323 18.6548 14.0849 18.726 14.0852Z" fill="#F2C140"/>
<path d="M25.3307 13.1654C25.3719 13.0988 25.6564 13.1496 26.0549 13.2958C26.5691 13.4847 27.0478 14.0563 27.1131 14.5586C27.1422 14.7836 27.0712 14.8452 26.8493 14.7893C26.2065 14.6274 25.8961 14.43 25.6327 14.013C25.4653 13.7479 25.285 13.242 25.3307 13.1654Z" fill="#F2C140"/>
<path d="M21.065 9.63585C21.1294 9.69654 21.086 10.2327 20.9927 10.5325C20.8462 11.0033 20.5987 11.2751 20.0198 11.5977C19.8199 11.7091 19.735 11.6672 19.7049 11.4423C19.6381 10.9403 19.9525 10.2654 20.4 9.9498C20.747 9.70541 21.0078 9.58228 21.065 9.63585Z" fill="#F2C140"/>
<path d="M26.2385 8.43626C26.5963 8.2912 26.8639 8.27507 26.8643 8.39815C26.8643 8.60796 26.6004 9.16204 26.3829 9.40918C26.1407 9.68395 25.7586 9.88607 25.3438 9.95983C25.0559 10.0109 25.0119 9.91773 25.1432 9.53255C25.3268 8.99406 25.643 8.67779 26.2385 8.43626Z" fill="#F2C140"/>
<path d="M22.6527 6.77428C22.6529 6.52342 22.7613 6.50437 23.1502 6.68702C23.7344 6.96155 24.1056 7.45318 24.1813 8.05512C24.2135 8.31239 24.2029 8.37971 24.1261 8.40918C23.9764 8.46535 23.2783 8.08876 23.074 7.84148C22.8547 7.57545 22.6529 7.06323 22.6527 6.77428Z" fill="#F2C140"/>
<path d="M25.9496 6.04309C25.9491 6.03558 25.9484 6.02823 25.9476 6.02102H25.3157C24.8748 6.3678 24.6817 6.7423 24.6487 7.30186C24.6189 7.80624 24.7038 7.86771 25.1161 7.63887C25.6378 7.3492 25.9899 6.67436 25.9496 6.04309Z" fill="#F2C140"/>
<path d="M26.7267 27.9984C26.8481 28.0157 26.865 28.0573 26.8812 28.3685C26.8881 28.503 26.8781 28.6444 26.8561 28.7837H25.8561C25.9255 28.6595 26.0256 28.5464 26.2112 28.3605C26.4917 28.0794 26.6256 27.9842 26.7267 27.9984Z" fill="#E94523"/>
<path d="M19.9404 25.7186C19.9744 25.6299 19.9825 25.6319 20.5311 25.7968C21.1376 25.9793 21.7159 26.648 21.7177 27.1699C21.7183 27.3426 21.7168 27.3432 21.4218 27.3083C21.0279 27.2616 20.7126 27.0927 20.4148 26.7697C20.1646 26.4979 19.8818 25.8714 19.9404 25.7186Z" fill="#E94523"/>
<path d="M25.156 23.1408C25.486 23.1932 25.9634 23.4089 26.2122 23.6193C26.4521 23.8224 26.7125 24.3387 26.7127 24.6102V24.8169L26.4419 24.7797C25.724 24.6812 25.1051 24.0735 24.9384 23.3033L24.8942 23.0987L25.156 23.1408Z" fill="#E94523"/>
<path d="M27.6756 21.9723C27.6756 21.8265 27.7862 21.8215 28.2212 21.9493C28.2516 21.9582 28.2813 21.9696 28.3105 21.9794V23.1087C28.2664 23.0694 28.2229 23.0275 28.1821 22.9824C27.9534 22.7292 27.6761 22.1763 27.6756 21.9723Z" fill="#E94523"/>
<path d="M23.6685 20.2512C23.7631 20.005 24.7968 20.4389 25.0968 20.851C25.3319 21.1742 25.4589 21.4811 25.4368 21.6714C25.4208 21.8086 25.3959 21.8218 25.1781 21.8058C24.8548 21.782 24.349 21.5296 24.149 21.2933C23.9284 21.0326 23.624 20.3724 23.6685 20.2512Z" fill="#E94523"/>
</svg>
