<svg width="32" height="34" viewBox="0 0 32 34" fill="none" xmlns="http://www.w3.org/2000/svg">
<path d="M16.6071 33.1057C17.1039 33.3632 18.5796 32.2978 18.4995 33.0318C18.4985 33.0404 18.4979 33.0486 18.4976 33.0564C18.1929 33.1126 17.8749 33.169 17.5499 33.2185C17.2752 33.2542 17.0109 33.2853 16.7577 33.317C17.5427 33.3271 17.8547 33.4208 17.4571 33.5587C16.9895 33.656 16.2415 33.6559 15.8205 33.5587C15.6973 33.5202 15.6338 33.4843 15.6215 33.4535C12.6167 33.7986 11.6125 33.7573 12.3589 33.2668C12.3829 33.2502 12.4025 33.232 12.4195 33.2147C14.1699 33.2477 16.2653 32.9284 16.6071 33.1057Z" fill="#CA726D"/>
<path d="M3.70803 28.7429C3.52099 28.451 3.56745 28.3531 3.89471 28.5477C4.0002 28.6025 4.11884 28.6225 4.23586 28.6111C4.22755 28.6692 4.20986 28.7204 4.179 28.7618C4.00917 28.9896 4.22662 29.2133 4.60827 29.2584C5.03748 29.3092 5.35518 29.4961 5.32847 29.7407C5.30875 29.9315 6.20463 30.1342 7.36396 30.1842C6.55346 30.305 6.24836 30.7528 7.27867 30.9129C7.27991 30.9131 7.28121 30.9128 7.28246 30.9129C7.18613 30.9217 7.12798 30.9648 7.11947 31.0427C7.09674 31.2551 7.49662 31.5981 7.95906 31.8624C8.72612 32.3008 9.06411 31.7512 8.33243 31.3014C8.44932 31.358 8.56329 31.4156 8.66694 31.473C9.1994 31.7777 9.45212 31.6721 9.51885 31.1669C9.51592 31.2018 9.51441 31.2384 9.51032 31.2759C9.44099 31.9119 9.80562 32.5499 10.4466 32.8735C10.893 33.1079 11.5949 33.1951 12.3683 33.2128C12.3283 33.246 12.2797 33.2814 12.2196 33.3151C11.6584 33.6557 11.0502 33.5584 10.2552 33.0233C9.64723 32.5855 9.13222 32.3429 9.13222 32.4888C9.13119 32.6341 8.52408 32.4392 7.72974 32.0017C6.98152 31.5639 6.32631 31.0285 6.32631 30.7367C6.32634 30.6655 6.33527 30.608 6.34811 30.5623C6.24184 30.5736 6.13815 30.5988 6.04581 30.64C5.67178 30.7858 5.39101 30.591 5.39101 30.1046C5.39098 29.6668 5.11031 29.3266 4.7362 29.3266C4.36229 29.3265 3.89521 29.0831 3.70803 28.7429Z" fill="#CA726D"/>
<path d="M19.3732 32.5599C19.7547 32.1712 20.1791 32.6854 20.6022 32.558C20.2032 32.6897 19.6307 32.8322 18.9676 32.9664C19.0583 32.8889 19.159 32.7922 19.2632 32.6755C19.3013 32.6341 19.338 32.5957 19.3732 32.5599Z" fill="#CA726D"/>
<path d="M28.4637 28.2709C28.1541 28.5886 27.7936 28.9487 27.3711 29.3749C25.7815 30.9312 24.2387 32.2445 23.864 32.2453C23.5367 32.2453 22.8817 32.3909 22.4141 32.5855C21.8531 32.78 21.7125 32.7317 21.946 32.3429C22.0654 32.1254 22.0883 31.9483 22.017 31.8482C22.1035 31.8362 22.1832 31.8313 22.2539 31.8397C22.5878 31.8791 23.4097 31.4309 24.1046 30.8191C24.7943 30.2561 25.7177 29.7705 26.0994 29.8156C26.4811 29.8606 27.149 29.4928 27.5417 28.994C27.7923 28.6756 28.1364 28.4093 28.4637 28.2709Z" fill="#CA726D"/>
<path d="M21.2476 32.1287C21.2278 32.1655 21.2114 32.2045 21.1983 32.2453C21.1819 32.3305 20.964 32.4387 20.606 32.557C20.6657 32.5386 20.7257 32.508 20.7851 32.4594C20.9214 32.334 21.0815 32.2227 21.2476 32.1287Z" fill="#CA726D"/>
<path d="M25.4541 31.3204C26.4828 30.4937 27.8382 30.3965 27.8383 31.1261C27.8383 31.2721 27.5112 31.2724 27.137 31.0778C26.7629 30.9319 26.4358 30.9805 26.4358 31.2237C26.4354 31.4669 25.9677 31.7582 25.4067 31.9041C24.3312 32.196 24.3317 32.1961 25.4541 31.3204Z" fill="#CA726D"/>
<path d="M8.57312 30.2382C9.34048 30.3141 9.53467 30.5013 9.52833 30.9906C9.50953 30.6099 9.2135 30.369 8.57312 30.2382Z" fill="#CA726D"/>
<path d="M3.33656 27.6209C3.07232 26.9457 3.16805 26.9569 3.77152 27.6228C3.91068 27.7624 4.02281 27.9186 4.10319 28.071C3.88003 28.0255 3.62766 27.9044 3.36689 27.7308C3.36368 27.7065 3.35406 27.6698 3.33656 27.6209Z" fill="#CA726D"/>
<path d="M0.700279 21.0766C0.745723 22.3669 0.851799 23.1182 1.03479 23.4826C1.18816 23.8477 1.33605 24.2617 1.32002 24.4084C1.30413 24.5554 1.82782 25.5094 2.48939 26.5292C2.80067 27.0435 3.05278 27.4234 3.20579 27.619C2.54262 27.1266 1.8647 26.3127 1.55598 25.483C0.760025 23.459 0.383162 21.305 0.700279 21.0766Z" fill="#CA726D"/>
<path d="M0.672798 19.5964C0.671221 19.5964 0.669641 19.5964 0.66806 19.5964C0.306136 19.5964 0.294036 19.4143 0.674693 18.9179C0.673286 19.1542 0.67223 19.3803 0.672798 19.5964Z" fill="#CA726D"/>
<path d="M1.01963 15.027C0.843534 15.8901 0.723848 16.6612 0.700279 17.1629C0.281187 16.2261 0.270206 15.2184 0.761875 15.2184C0.874321 15.2182 0.96136 15.1459 1.01963 15.027Z" fill="#CA726D"/>
<path d="M1.50955 12.9375C1.35736 13.5166 1.21576 14.1147 1.09354 14.6839C1.09733 14.5519 1.08367 14.4028 1.04237 14.2452C0.902074 13.7101 0.948791 13.272 1.18262 13.272C1.26002 13.2717 1.37545 13.1457 1.50955 12.9375Z" fill="#CA726D"/>
<path d="M4.02169 7.21763C3.11836 8.42344 2.45661 9.86051 1.86964 11.6838C1.79154 11.7648 1.71782 11.8127 1.6498 11.8127C1.41638 11.812 1.41675 11.2765 1.69718 10.45C2.0191 9.51274 2.90324 8.3315 4.02169 7.21763Z" fill="#CA726D"/>
<path d="M22.0066 3.10874C22.1222 3.2084 22.286 3.3062 22.4681 3.38261C22.4269 3.49917 22.6802 3.70845 23.2594 4.04784C23.9066 4.4805 24.4672 4.62107 24.7016 4.44489C24.8231 4.55354 24.9431 4.66684 25.057 4.78414C23.35 4.49579 21.6452 3.57757 22.0066 3.10874Z" fill="#CA726D"/>
<path d="M19.4215 2.03414C19.4215 1.74225 19.8421 1.7906 20.4032 2.08247C20.6109 2.21997 20.7946 2.35898 20.932 2.48047C20.5564 2.38665 20.0705 2.28327 19.4528 2.16207C19.4336 2.11819 19.4215 2.07592 19.4215 2.03414Z" fill="#CA726D"/>
<path d="M13.7994 0.972716C13.5568 1.06975 12.3924 1.36086 11.2279 1.65197C9.86859 2.00658 9.14995 3.21621 8.16278 4.21573C7.08655 5.30542 5.43848 6.58799 4.2318 7.48149C3.2319 8.22189 2.28886 9.19244 2.28886 10.4366C2.28886 12.2803 1.52428 14.3638 0.990578 14.0241C0.602432 13.8301 0.456877 14.7519 0.214286 18.973C0.117249 21.3019 0.311322 22.3693 1.13613 24.0674C4.33834 30.3748 6.66721 32.3155 12.1013 33.3829C13.9935 33.7225 16.3709 33.9651 17.3412 33.8681C21.0286 33.5285 22.7753 33.2373 23.3575 32.8492C23.6971 32.6551 24.0853 32.4611 24.2308 32.4611C24.3764 32.4611 25.2497 31.8303 26.1715 31.054C27.0934 30.3263 27.5301 29.8896 27.1419 30.0837C26.5112 30.4233 26.5112 30.3263 27.0934 29.647C27.433 29.2103 27.9182 28.9677 28.1608 29.1133C28.4034 29.2589 28.5975 29.0163 28.5975 28.6281C28.5975 28.1915 28.743 27.8518 28.9856 27.8518C29.1797 27.8518 29.2767 26.8815 29.1797 25.6685C28.9856 23.7278 29.0826 23.4852 30.0045 23.4852C30.6352 23.4852 31.2174 23.0485 31.46 22.3693C32.0423 20.8167 30.7801 16.6859 30.9749 16.1589C31.1696 15.632 29.956 14.2667 30.6837 14.2667C30.9749 14.2667 30.7808 13.9271 30.2471 13.5389C30.2034 13.5062 30.1624 13.4745 30.1242 13.4439C29.6345 13.0521 30.3024 12.4783 29.8589 12.0349C29.4223 11.6467 29.0826 11.016 29.0826 10.6278C29.0826 10.2882 28.5489 9.51193 27.8697 8.88119C27.2389 8.25045 26.6567 7.37712 26.6567 6.98898C26.6567 6.60083 26.2201 5.9701 25.6864 5.63047C25.1527 5.29084 24.716 4.70862 24.716 4.27196C24.716 3.49566 20.6405 1.40938 19.9127 1.89456C19.6701 2.04012 19.379 1.94308 19.282 1.65197C19.1364 1.21531 14.8183 0.681607 13.7994 0.972716Z" fill="#CA726D"/>
<path d="M8.8504 2.1372C8.52808 2.1372 8.94728 2.64516 8.80774 2.9357C8.616 3.3349 8.19624 3.92475 7.63744 4.5146L6.03634 6.26125L7.83151 4.61163C9.3841 3.15609 9.82076 2.1372 8.8504 2.1372Z" fill="#CA726D"/>
<path d="M4.04709 7.57125L2.64006 9.17235L4.24116 7.76532C5.69671 6.40681 6.03634 6.01866 5.64819 6.01866C5.55116 6.01866 4.8719 6.74644 4.04709 7.57125Z" fill="#CA726D"/>
<path d="M29.0825 24.9407C29.0825 26.2992 29.8588 27.124 29.9073 25.7655C29.9073 25.4744 30.1014 24.7951 30.2955 24.3099C30.5381 23.7277 30.3925 23.4851 29.8588 23.4851C29.3251 23.4851 29.0825 23.9218 29.0825 24.9407Z" fill="#CA726D"/>
<path d="M6.66712 4.07777C5.64824 4.90258 4.38676 6.26109 3.75603 7.13442C2.8827 8.39589 3.22232 8.4737 5.69676 6.33889C7.34638 4.93186 8.85044 3.57335 8.996 3.33076C9.5297 2.40892 8.36526 2.67074 6.66712 4.07777Z" fill="#CA726D"/>
<path d="M1.13588 11.5498C0.990322 11.9379 0.941804 12.6657 1.03884 13.1024C1.13588 13.7816 1.32995 13.6846 1.76661 12.6657C2.15476 11.8894 2.20328 11.2587 1.91217 11.1131C1.62106 10.919 1.28143 11.1616 1.13588 11.5498Z" fill="#CA726D"/>
<path d="M30.1498 24.6982C29.8587 25.3774 29.8102 25.9111 30.0528 25.9111C30.2646 25.9111 30.5562 25.4661 30.7617 24.9689C31.1032 24.1427 30.502 23.8765 30.1498 24.6982Z" fill="#CA726D"/>
</svg>
