<svg xmlns="http://www.w3.org/2000/svg" version="1.1" xmlns:xlink="http://www.w3.org/1999/xlink" width="34" height="34"><svg width="34" height="34" viewBox="0 0 34 34" fill="none" xmlns="http://www.w3.org/2000/svg">
<path d="M16.8528 10.8468V10.8526H17.107C20.5771 10.9977 23.3459 13.8567 23.3459 17.3625C23.3459 18.5473 23.0296 19.6582 22.477 20.6155L22.4753 20.6145L22.3966 20.7508C21.2526 22.6262 19.1876 23.8782 16.8301 23.8782C13.2316 23.8782 10.3144 20.961 10.3144 17.3625C10.3144 13.7639 13.2316 10.8468 16.8301 10.8468C16.8377 10.8468 16.8452 10.8468 16.8528 10.8468Z" fill="#3275E0"></path>
<path d="M9.73863 21.5333L9.74155 21.5316C11.1711 23.9578 13.8107 25.5857 16.8305 25.5857C17.9396 25.5857 18.9974 25.366 19.9628 24.9679L14.8774 33.7761C12.7283 33.5183 10.5948 32.8307 8.60166 31.68C0.710505 27.124 -1.9932 17.0336 2.56275 9.14244C2.56642 9.1361 2.57011 9.12975 2.57379 9.12341L9.73863 21.5333Z" fill="#35BA20"></path>
<path d="M8.6019 3.10279C16.4924 -1.4528 26.5818 1.25011 31.1383 9.13977H16.8307C12.6563 9.13977 9.20852 12.2515 8.67905 16.2813L3.62301 7.52404C4.92461 5.77727 6.59558 4.26114 8.6019 3.10279Z" fill="#E94523"></path>
<path d="M32.0032 10.8525C32.8694 12.8573 33.3494 15.0679 33.3494 17.3906C33.3494 26.5026 25.9627 33.8893 16.8508 33.8893C16.83 33.8893 16.8092 33.8892 16.7884 33.8891L23.9583 21.4705L23.9552 21.4687C24.653 20.2604 25.0524 18.8581 25.0524 17.3624C25.0524 14.7129 23.7992 12.3562 21.8533 10.8525H32.0032Z" fill="#E9AF19"></path>
</svg><style>@media (prefers-color-scheme: light) { :root { filter: none; } }
@media (prefers-color-scheme: dark) { :root { filter: none; } }
</style></svg>