<svg xmlns="http://www.w3.org/2000/svg" version="1.1" xmlns:xlink="http://www.w3.org/1999/xlink" width="36" height="34"><svg width="36" height="34" viewBox="0 0 36 34" fill="none" xmlns="http://www.w3.org/2000/svg">
<path d="M14.1358 2.04881C10.0812 4.43102 8.69202 9.70707 11.0329 13.8332C13.3738 17.9593 18.5583 19.373 22.6129 16.9908C26.6674 14.6086 28.0566 9.33254 25.7157 5.20642C23.3748 1.08031 18.1903 -0.333406 14.1358 2.04881Z" fill="#EAE9F0"></path>
<path d="M5.20384 17.7919C1.1493 20.1741 -0.23989 25.4502 2.101 29.5763C4.44189 33.7024 9.62642 35.1161 13.681 32.7339C17.7355 30.3517 19.1247 25.0757 16.7838 20.9495C14.4429 16.8234 9.25838 15.4097 5.20384 17.7919Z" fill="#EAE9F0"></path>
<path d="M31.5323 17.7919C35.5868 20.1741 36.976 25.4502 34.6351 29.5763C32.2942 33.7024 27.1097 35.1161 23.0552 32.7339C19.0006 30.3517 17.6114 25.0757 19.9523 20.9495C22.2932 16.8234 27.4777 15.4097 31.5323 17.7919Z" fill="#EAE9F0"></path>
</svg><style>@media (prefers-color-scheme: light) { :root { filter: none; } }
@media (prefers-color-scheme: dark) { :root { filter: none; } }
</style></svg>